# AST/ASF file generated using VICON BodyLanguage
# -----------------------------------------------
:version 1.10
:name VICON
:units
  mass 1.0
  length 0.45
  angle deg
:documentation
   .ast/.asf automatically generated from VICON data using
   VICON BodyBuilder and BodyLanguage model FoxedUp or BRILLIANT.MOD
:root
   order TX TY TZ RX RY RZ
   axis XYZ
   position 0 0 0  
   orientation 0 0 0 
:bonedata
  begin
     id 1 
     name lhipjoint
     direction 0.570549 -0.739093 0.358072 
     length 2.41801 
     axis 0 0 0  XYZ
  end
  begin
     id 2 
     name lfemur
     direction 0.34202 -0.939693 0  
     length 7.44434  
     axis 0 0 20  XYZ
    dof rx ry rz
    limits (-160.0 20.0)
           (-70.0 70.0)
           (-60.0 70.0)
  end
  begin
     id 3 
     name ltibia
     direction 0.34202 -0.939693 0   
     length 7.60047   
     axis 0 0 20   XYZ
    dof rx
    limits (-10.0 170.0)
  end
  begin
     id 4 
     name lfoot
     direction 0.0909041 -0.249757 0.964032   
     length 2.03437   
     axis -90 7.62852e-016 20   XYZ
    dof rx rz
    limits (-45.0 90.0)
           (-70.0 20.0)
  end
  begin
     id 5 
     name ltoes
     direction 1.53547e-011 -4.2174e-011 1   
     length 1.02054   
     axis -90 7.62852e-016 20   XYZ
    dof rx
    limits (-90.0 20.0)
  end
  begin
     id 6 
     name rhipjoint
     direction -0.558096 -0.746754 0.361784   
     length 2.3932  
     axis 0 0 0  XYZ 
  end
  begin
     id 7 
     name rfemur
     direction -0.34202 -0.939693 0   
     length 7.3886   
     axis 0 0 -20   XYZ
    dof rx ry rz
    limits (-160.0 20.0)
           (-70.0 70.0)
           (-70.0 60.0)
  end
  begin
     id 8 
     name rtibia
     direction -0.34202 -0.939693 0   
     length 7.4839   
     axis 0 0 -20   XYZ
    dof rx
    limits (-10.0 170.0)
 end
 begin
     id 9 
     name rfoot
     direction -0.114619 -0.314914 0.942174   
     length 2.25127  
     axis -90 -7.62852e-016 -20   XYZ
    dof rx rz
    limits (-45.0 90.0)
           (-20.0 70.0)
  end
  begin
     id 10 
     name rtoes
     direction -1.53518e-011 -4.21881e-011 1   
     length 1.11821   
     axis -90 -7.62852e-016 -20   XYZ
    dof rx
    limits (-90.0 20.0)
  end
  begin
     id 11 
     name lowerback
     direction -0.00902269 0.996426 -0.0839821   
     length 2.25052   
     axis 0 0 0   XYZ
    dof rx ry rz
    limits (-20.0 45.0)
           (-30.0 30.0)
           (-30.0 30.0)
  end
  begin
     id 12 
     name upperback
     direction 0.0370973 0.999169 -0.0168941   
     length 2.24876   
     axis 0 0 0   XYZ
    dof rx ry rz
    limits (-20.0 45.0)
           (-30.0 30.0)
           (-30.0 30.0)
  end
  begin
     id 13 
     name thorax
     direction 0.0402726 0.998931 0.0227027   
     length 2.26408   
     axis 0 0 0   XYZ
    dof rx ry rz
    limits (-20.0 45.0)
           (-30.0 30.0)
           (-30.0 30.0)
  end
  begin
     id 14 
     name lowerneck
     direction -0.0733697 0.98508 0.155675   
     length 1.58204   
     axis 0 0 0   XYZ
    dof rx ry rz
    limits (-20.0 45.0)
           (-30.0 30.0)
           (-30.0 30.0)
  end
  begin
     id 15 
     name upperneck
     direction 0.0426554 0.993501 -0.105526   
     length 1.61222   
     axis 0 0 0   XYZ
    dof rx ry rz
    limits (-20.0 45.0)
           (-30.0 30.0)
           (-30.0 30.0)
  end
  begin
     id 16
     name head
     direction 0.020792 0.998384 -0.0528868  
     length 1.61527  
     axis 0 0 0   XYZ
    dof rx ry rz
    limits (-20.0 45.0)
           (-30.0 30.0)
           (-30.0 30.0)
  end
  begin
     id 17 
     name lclavicle
     direction 0.967109 0.155462 -0.201325  
     length 3.59357  
     axis 0 0 0   XYZ
    dof ry rz
    limits (-20.0 10.0)
           (0.0 20.0)
  end
  begin
     id 18 
     name lhumerus
     direction 1 -4.48968e-011 2.38195e-027   
     length 5.38154   
     axis 180 -30 -90   XYZ
    dof rx ry rz
    limits (-60.0 90.0)
           (-90.0 90.0)
           (-90.0 90.0)
  end
  begin
     id 19
     name lradius
     direction 1 -4.48961e-011 4.85371e-027   
     length 3.33312   
     axis 180 -30 -90   XYZ
    dof rx
    limits (-10.0 170.0)
  end
  begin
     id 20
     name lwrist
     direction 1 -4.48961e-011 4.76515e-027   
     length 1.66656   
     axis -3.27502e-015 90 90   XYZ
    dof ry
    limits (-180.0 0.0)
 end
  begin
     id 21 
     name lhand
     direction 1 -4.48951e-011 9.53074e-027   
     length 0.710789   
     axis -6.08098e-015 90 90   XYZ
    dof rx rz
    limits (-90.0 90.0)
           (-45.0 45.0)
  end
  begin
     id 22 
     name lfingers
     direction 1 -4.48953e-011 1.90613e-026   
     length 0.573057   
     axis -1.21619e-014 90 90   XYZ
    dof rx
    limits (0.0 90.0)
  end
  begin
     id 23
     name lthumb
     direction 0.707107 -6.34973e-011 0.707107   
     length 0.822798   
     axis -90 45 -9.86923e-015   XYZ
    dof rx rz
    limits (-45.0 45.0)
           (-45.0 45.0)
  end
  begin
     id 24 
     name rclavicle
     direction -0.9585 0.265289 -0.104398   
     length 3.42039  
     axis 0 0 0   XYZ 
    dof ry rz
    limits (-10.0 20.0)
           (-20.0 0.0)
  end
  begin
     id 25 
     name rhumerus
     direction -1 -4.48977e-011 2.21478e-027  
     length 5.16954   
     axis 180 30 90   XYZ
    dof rx ry rz
    limits (-90.0 60.0)
           (-90.0 90.0)
           (-90.0 90.0)
  end
  begin
     id 26 
     name rradius
     direction -1 -4.48967e-011 5.63677e-027   
     length 3.38287   
     axis 180 30 90   XYZ
    dof rx
    limits (-10.0 170.0)
  end
  begin
     id 27 
     name rwrist
     direction -1 -4.48967e-011 4.76501e-027   
     length 1.69144   
     axis -3.27502e-015 -90 -90   XYZ
    dof ry
    limits (-180.0 0.0)
  end
  begin
     id 28
     name rhand
     direction -1 -4.48902e-011 9.53292e-027   
     length 0.817967   
     axis -6.08098e-015 -90 -90   XYZ
    dof rx rz
    limits (-90.0 90.0)
           (-45.0 45.0)
  end
  begin
     id 29
     name rfingers
     direction -1 -4.49012e-011 1.90561e-026   
     length 0.659466   
     axis -1.21619e-014 -90 -90   XYZ
    dof rx
    limits (0.0 90.0)
  end
  begin
     id 30
     name rthumb
     direction -0.707107 -6.34944e-011 0.707107   
     length 0.946865   
     axis -90 -45 9.86923e-015   XYZ
    dof rx rz
    limits (-45.0 45.0)
           (-45.0 45.0)
  end
:hierarchy
  begin
    root lhipjoint rhipjoint lowerback
    lhipjoint lfemur
    lfemur ltibia
    ltibia lfoot
    lfoot ltoes
    rhipjoint rfemur
    rfemur rtibia
    rtibia rfoot
    rfoot rtoes
    lowerback upperback
    upperback thorax
    thorax lowerneck lclavicle rclavicle
    lowerneck upperneck
    upperneck head
    lclavicle lhumerus
    lhumerus lradius
    lradius lwrist
    lwrist lhand lthumb
    lhand lfingers
    rclavicle rhumerus
    rhumerus rradius
    rradius rwrist
    rwrist rhand rthumb
    rhand rfingers
  end

#!OML:ASF F:\twosubjects\two\wednesday\Session 1\Justin1.ASF
:FULLY-SPECIFIED
:DEGREES
17
root 2.98134 17.235 -14.2649 -1.83262 2.51599 2.78599
lowerback 2.44312 1.22945 -3.63486
upperback 0.380906 1.54948 0.5379
thorax -1.08982 0.789573 2.53687
lowerneck -13.9019 -5.24954 -12.71
upperneck 19.6879 -6.94628 11.6565
head 9.34438 -3.02881 5.30659
rclavicle -4.07353e-015 -1.63003e-014
rhumerus 13.4683 -8.89021 -79.3647
rradius 46.7977
rwrist -30.5655
rhand -18.3491 17.0218
rfingers 7.12502
rthumb 7.93344 -12.8093
lclavicle -4.07353e-015 -1.63003e-014
lhumerus -59.0394 22.1033 57.4115
lradius 16.6481
lwrist -22.2635
lhand 7.85171 41.8681
lfingers 7.12502
lthumb 33.086 68.8501
rfemur -39.3069 -1.77578 11.7047
rtibia 18.3939
rfoot -7.05991 -20.2662
rtoes -1.96303
lfemur 4.88747 3.59295 -27.5704
ltibia 18.8452
lfoot -18.9407 -8.55809
ltoes 0.216078
18
root 2.98115 17.2305 -14.1134 -1.7338 3.05327 2.83169
lowerback 2.48078 1.12455 -3.80095
upperback 0.293491 1.40311 0.606874
thorax -1.19604 0.720645 2.70482
lowerneck -13.7205 -5.31044 -12.7387
upperneck 19.6621 -7.01539 11.5298
head 9.30769 -3.08133 5.25729
rclavicle -4.51769e-015 -7.95139e-016
rhumerus 13.314 -8.94623 -78.9125
rradius 46.8206
rwrist -30.755
rhand -18.3178 16.9922
rfingers 7.12502
rthumb 7.96366 -12.8378
lclavicle -4.51769e-015 -7.95139e-016
lhumerus -58.9673 22.2218 57.3192
lradius 16.8825
lwrist -22.0661
lhand 7.74599 42.1851
lfingers 7.12502
lthumb 32.9855 69.1884
rfemur -39.6029 -1.09956 10.9752
rtibia 17.2551
rfoot -9.18146 -21.3576
rtoes 1.82426
lfemur 5.76577 3.70155 -27.5937
ltibia 18.0104
lfoot -18.8575 -8.57629
ltoes 1.36864
19
root 2.98481 17.2193 -13.9668 -1.5814 3.68072 2.51073
lowerback 2.51586 1.01076 -3.49665
upperback 0.223647 1.25993 0.800301
thorax -1.27446 0.650621 2.7372
lowerneck -13.9497 -5.43456 -12.9194
upperneck 19.8837 -7.13859 11.5318
head 9.45239 -3.14486 5.27509
rclavicle 1.11754e-014 -4.77083e-015
rhumerus 13.1449 -8.9505 -78.3111
rradius 46.9131
rwrist -30.997
rhand -18.7373 16.9164
rfingers 7.12502
rthumb 7.55871 -12.9285
lclavicle 1.11754e-014 -4.77083e-015
lhumerus -58.9749 23.1106 56.4216
lradius 16.8209
lwrist -23.0115
lhand 7.69552 42.0552
lfingers 7.12502
lthumb 32.9375 69.0686
rfemur -39.9815 -1.20653 11.0799
rtibia 16.363
rfoot -14.3444 -20.985
rtoes 17.919
lfemur 6.49221 3.74032 -27.2475
ltibia 17.2986
lfoot -18.8787 -8.55025
ltoes 1.77353
20
root 2.98185 17.2062 -13.8239 -1.40745 4.12906 2.31312
lowerback 2.48679 0.914518 -3.35095
upperback 0.193292 1.13784 0.913889
thorax -1.27981 0.58969 2.77721
lowerneck -14.0992 -5.53067 -13.1575
upperneck 19.8946 -7.23899 11.6999
head 9.51514 -3.18806 5.36141
rclavicle 1.07546e-014 7.15625e-015
rhumerus 12.9641 -8.9721 -77.8997
rradius 47.1081
rwrist -31.0804
rhand -18.8307 16.8507
rfingers 7.12502
rthumb 7.46861 -12.9974
lclavicle 1.07546e-014 7.15625e-015
lhumerus -58.5301 23.1609 56.5881
lradius 17.0948
lwrist -22.5921
lhand 7.40197 42.0372
lfingers 7.12502
lthumb 32.6582 69.1089
rfemur -40.5366 -2.22536 11.8422
rtibia 15.9468
rfoot -10.779 -20.5314
rtoes -2.03392
lfemur 7.28241 3.63254 -27.0824
ltibia 16.4644
lfoot -18.7252 -8.14299
ltoes -0.202206
21
root 2.98173 17.1931 -13.6792 -1.09883 4.70182 2.66918
lowerback 2.41532 0.754435 -3.68665
upperback 0.095115 0.914609 0.781112
thorax -1.32741 0.482044 2.83793
lowerneck -14.1278 -5.62109 -13.1574
upperneck 19.8388 -7.36073 11.7083
head 9.51908 -3.24291 5.34527
rclavicle 5.13113e-015 -1.23246e-014
rhumerus 12.7916 -9.07434 -77.7448
rradius 47.0808
rwrist -31.0518
rhand -18.1793 17.2526
rfingers 7.12502
rthumb 8.09726 -12.5722
lclavicle 5.13113e-015 -1.23246e-014
lhumerus -58.0872 22.8967 57.0045
lradius 17.6934
lwrist -21.7622
lhand 7.33305 42.1115
lfingers 7.12502
lthumb 32.5927 69.1967
rfemur -41.3192 -4.23279 12.5456
rtibia 15.9066
rfoot -8.95875 -18.5805
rtoes -10.7991
lfemur 8.04206 3.00537 -27.6363
ltibia 15.5337
lfoot -18.4702 -7.49451
ltoes -1.22572
22
root 2.98849 17.18 -13.537 -0.791573 5.46887 3.52659
lowerback 2.56536 0.536081 -4.44496
upperback -0.0677236 0.587787 0.487229
thorax -1.55893 0.330575 2.9718
lowerneck -14.1925 -5.6283 -12.7423
upperneck 19.8882 -7.38212 11.3459
head 9.51957 -3.25555 5.14007
rclavicle -4.6528e-015 8.74653e-015
rhumerus 12.6053 -9.13303 -77.6772
rradius 46.8365
rwrist -31.1004
rhand -17.6445 17.3552
rfingers 7.12502
rthumb 8.6134 -12.4491
lclavicle -4.6528e-015 8.74653e-015
lhumerus -57.6931 22.3929 57.561
lradius 18.3202
lwrist -20.682
lhand 7.56085 42.4809
lfingers 7.12502
lthumb 32.8094 69.5211
rfemur -42.0341 -6.80386 12.9494
rtibia 15.9159
rfoot -7.5016 -16.2561
rtoes -14.2982
lfemur 8.74764 2.15179 -28.7447
ltibia 14.7635
lfoot -18.297 -7.10514
ltoes 0.572779
23
root 2.98238 17.1721 -13.3987 -0.543144 5.73107 3.52248
lowerback 2.65902 0.475535 -4.4724
upperback -0.242404 0.498157 0.502805
thorax -1.78427 0.294336 3.00575
lowerneck -13.8784 -5.48598 -12.5715
upperneck 19.6016 -7.22624 11.3073
head 9.33082 -3.18359 5.11571
rclavicle 1.08508e-014 1.59028e-015
rhumerus 12.2621 -9.25818 -77.5964
rradius 46.7193
rwrist -31.0368
rhand -17.5604 16.4981
rfingers 7.12502
rthumb 8.69459 -13.3028
lclavicle 1.08508e-014 1.59028e-015
lhumerus -57.2176 21.8467 58.1672
lradius 18.5635
lwrist -19.692
lhand 7.43559 42.0361
lfingers 7.12502
lthumb 32.6902 69.1012
rfemur -42.9075 -8.185 14.1163
rtibia 16.188
rfoot -6.04333 -14.7116
rtoes -16.4051
lfemur 9.40808 1.86837 -28.7494
ltibia 13.9286
lfoot -17.9552 -6.93362
ltoes 1.48402
24
root 2.96518 17.1737 -13.2601 -0.252421 5.74558 2.61894
lowerback 2.40858 0.567713 -3.612
upperback -0.202411 0.663909 0.786923
thorax -1.60944 0.366273 2.8099
lowerneck -13.7022 -5.56672 -13.2686
upperneck 19.0476 -7.35114 12.1844
head 9.18799 -3.21305 5.5223
rclavicle -2.00345e-014 6.75868e-015
rhumerus 12.2314 -9.79282 -77.4091
rradius 46.6583
rwrist -30.8334
rhand -17.5268 16.152
rfingers 7.12502
rthumb 8.727 -13.6476
lclavicle -2.00345e-014 6.75868e-015
lhumerus -56.0818 21.7164 58.8786
lradius 18.3874
lwrist -19.2694
lhand 7.04357 41.3524
lfingers 7.12502
lthumb 32.3172 68.4942
rfemur -43.9606 -8.54241 15.9393
rtibia 16.894
rfoot -4.9811 -14.0932
rtoes -15.0375
lfemur 10.063 1.81716 -27.6683
ltibia 12.7341
lfoot -17.3515 -6.90645
ltoes 1.29239
25
root 2.96046 17.1757 -13.1063 -0.187828 6.21035 2.72336
lowerback 2.26355 0.486745 -3.76954
upperback 0.0483652 0.56122 0.823812
thorax -1.26442 0.305556 2.94261
lowerneck -13.8053 -5.69955 -13.7218
upperneck 18.6007 -7.49107 12.6788
head 9.11427 -3.2602 5.74613
rclavicle -4.01297e-015 1.98785e-015
rhumerus 12.3364 -10.071 -77.1932
rradius 46.6036
rwrist -30.8499
rhand -17.4586 16.6847
rfingers 7.12502
rthumb 8.79282 -13.1122
lclavicle -4.01297e-015 1.98785e-015
lhumerus -54.7935 21.3047 60.2361
lradius 18.6148
lwrist -18.1069
lhand 6.76193 41.5585
lfingers 7.12502
lthumb 32.0491 68.7546
rfemur -44.5641 -9.90066 16.8373
rtibia 17.6011
rfoot -3.19556 -13.2796
rtoes -13.1711
lfemur 11.1288 1.43556 -27.6992
ltibia 11.5588
lfoot -16.7799 -7.2768
ltoes 4.20845
26
root 2.96354 17.1643 -12.9378 -0.239418 6.67671 3.79911
lowerback 2.3261 0.371073 -4.92534
upperback 0.207542 0.374159 0.587818
thorax -1.12713 0.211723 3.35633
lowerneck -13.9988 -5.74379 -13.4139
upperneck 18.545 -7.4902 12.2094
head 9.09931 -3.27609 5.51939
rclavicle -4.05707e-014 -5.56597e-015
rhumerus 12.0003 -9.94407 -76.9317
rradius 46.6567
rwrist -31.0864
rhand -17.4886 16.6207
rfingers 7.12502
rthumb 8.76382 -13.1773
lclavicle -4.05707e-014 -5.56597e-015
lhumerus -54.2522 21.3774 60.6454
lradius 18.8793
lwrist -17.7812
lhand 6.62131 41.2572
lfingers 7.12502
lthumb 31.9152 68.4802
rfemur -44.8905 -11.399 16.5991
rtibia 18.1935
rfoot -1.17836 -12.6111
rtoes -11.1069
lfemur 12.3834 1.05429 -28.8482
ltibia 10.6894
lfoot -16.3606 -7.47546
ltoes 6.67284
27
root 2.95167 17.1435 -12.786 -0.103032 6.92423 4.25123
lowerback 2.56165 0.411992 -5.43891
upperback 0.125214 0.397268 0.451264
thorax -1.34907 0.233287 3.50217
lowerneck -14.128 -5.83301 -13.0962
upperneck 18.5715 -7.60344 11.8835
head 9.12199 -3.33333 5.33084
rclavicle 1.68346e-015 8.34896e-015
rhumerus 11.3524 -10.0684 -76.6427
rradius 46.7239
rwrist -31.2719
rhand -17.7009 16.1653
rfingers 7.12502
rthumb 8.55902 -13.6412
lclavicle 1.68346e-015 8.34896e-015
lhumerus -53.8329 21.8548 60.3502
lradius 18.7999
lwrist -18.4016
lhand 6.54363 40.6419
lfingers 7.12502
lthumb 31.8412 67.8795
rfemur -45.4522 -11.6313 16.5063
rtibia 18.9727
rfoot 0.396855 -13.2274
rtoes -9.69931
lfemur 13.5048 1.01105 -29.2329
ltibia 9.51099
lfoot -15.9171 -7.41817
ltoes 4.06732
28
root 2.91945 17.1328 -12.6582 -0.132355 7.71297 3.80787
lowerback 3.33494 0.212959 -5.27772
upperback -0.0945601 0.088912 0.632233
thorax -1.97893 0.100623 3.61075
lowerneck -14.1153 -5.80788 -12.6583
upperneck 18.6359 -7.5744 11.4212
head 9.09983 -3.3336 5.0963
rclavicle -1.49089e-015 1.19271e-015
rhumerus 10.584 -10.136 -76.6017
rradius 46.7682
rwrist -31.3075
rhand -17.9986 16.1803
rfingers 7.12502
rthumb 8.27167 -13.6377
lclavicle -1.49089e-015 1.19271e-015
lhumerus -53.2851 21.7772 60.7621
lradius 18.8713
lwrist -17.9437
lhand 6.27983 40.731
lfingers 7.12502
lthumb 31.5899 68.0184
rfemur -45.4255 -11.1991 16.7041
rtibia 19.6449
rfoot 1.3846 -14.9682
rtoes -9.04163
lfemur 14.6456 0.384452 -28.501
ltibia 8.29871
lfoot -15.3559 -7.46666
ltoes 0.954182
29
root 2.91904 17.1263 -12.4772 -0.167959 7.80143 3.4991
lowerback 3.19645 0.105899 -5.14903
upperback -0.0811109 -0.0365025 0.850533
thorax -1.87434 0.0346278 3.7704
lowerneck -14.1912 -5.72458 -12.4421
upperneck 18.7847 -7.42812 11.0503
head 9.12087 -3.28339 4.9496
rclavicle 2.7072e-014 -8.34896e-015
rhumerus 10.0254 -9.97376 -76.6432
rradius 46.7011
rwrist -31.4117
rhand -17.9322 16.411
rfingers 7.12502
rthumb 8.33577 -13.4045
lclavicle 2.7072e-014 -8.34896e-015
lhumerus -52.6839 21.7106 61.4371
lradius 18.8728
lwrist -17.2321
lhand 6.16485 40.7562
lfingers 7.12502
lthumb 31.4804 68.065
rfemur -45.308 -11.0912 17.3194
rtibia 20.0595
rfoot 3.07107 -15.2546
rtoes -8.68523
lfemur 15.6583 0.471626 -27.9955
ltibia 7.53215
lfoot -14.8927 -7.9788
ltoes 2.09997
